<mxfile host="app.diagrams.net" modified="2023-04-24T01:46:04.054Z" agent="Mozilla/5.0 (Windows NT 10.0; Win64; x64) AppleWebKit/537.36 (KHTML, like Gecko) Chrome/112.0.0.0 Safari/537.36 Edg/112.0.1722.58" etag="y1baaQlX85qoXgp9P79S" version="21.2.1" type="device">
  <diagram name="Page-1" id="sd_GXfZPaFUgGdZ6jKG0">
    <mxGraphModel dx="2087" dy="982" grid="0" gridSize="10" guides="1" tooltips="1" connect="1" arrows="1" fold="1" page="0" pageScale="1" pageWidth="850" pageHeight="1100" math="0" shadow="0">
      <root>
        <mxCell id="0" />
        <mxCell id="1" parent="0" />
        <mxCell id="iUOMdO7g5Awjb3ztJrqv-3" value="" style="group" parent="1" vertex="1" connectable="0">
          <mxGeometry x="1.7763568394002505e-15" y="550" width="133.25" height="135" as="geometry" />
        </mxCell>
        <mxCell id="iUOMdO7g5Awjb3ztJrqv-1" value="" style="outlineConnect=0;dashed=0;verticalLabelPosition=bottom;verticalAlign=top;align=center;html=1;shape=mxgraph.aws3.android;fillColor=#8CC64F;gradientColor=none;" parent="iUOMdO7g5Awjb3ztJrqv-3" vertex="1">
          <mxGeometry x="29.869999999999997" width="73.5" height="84" as="geometry" />
        </mxCell>
        <mxCell id="iUOMdO7g5Awjb3ztJrqv-2" value="&lt;h1&gt;&lt;b&gt;NodeJS&amp;nbsp;&lt;/b&gt;&lt;/h1&gt;" style="text;html=1;strokeColor=default;fillColor=none;align=center;verticalAlign=middle;whiteSpace=wrap;rounded=0;" parent="iUOMdO7g5Awjb3ztJrqv-3" vertex="1">
          <mxGeometry y="100" width="133.25" height="35" as="geometry" />
        </mxCell>
        <mxCell id="iUOMdO7g5Awjb3ztJrqv-25" style="edgeStyle=orthogonalEdgeStyle;rounded=0;orthogonalLoop=1;jettySize=auto;html=1;entryX=0;entryY=0.25;entryDx=0;entryDy=0;" parent="1" source="iUOMdO7g5Awjb3ztJrqv-5" target="iUOMdO7g5Awjb3ztJrqv-17" edge="1">
          <mxGeometry relative="1" as="geometry" />
        </mxCell>
        <mxCell id="iUOMdO7g5Awjb3ztJrqv-26" style="edgeStyle=orthogonalEdgeStyle;rounded=0;orthogonalLoop=1;jettySize=auto;html=1;entryX=0;entryY=0.75;entryDx=0;entryDy=0;" parent="1" source="iUOMdO7g5Awjb3ztJrqv-5" target="iUOMdO7g5Awjb3ztJrqv-22" edge="1">
          <mxGeometry relative="1" as="geometry" />
        </mxCell>
        <mxCell id="iUOMdO7g5Awjb3ztJrqv-5" value="&lt;b style=&quot;font-size: 20px;&quot;&gt;configs&lt;/b&gt;" style="rounded=1;whiteSpace=wrap;html=1;fontSize=20;" parent="1" vertex="1">
          <mxGeometry x="200" y="335" width="120" height="60" as="geometry" />
        </mxCell>
        <mxCell id="T4S2hVJWDYB4ushYNIzX-10" style="edgeStyle=orthogonalEdgeStyle;rounded=0;orthogonalLoop=1;jettySize=auto;html=1;entryX=0;entryY=0.5;entryDx=0;entryDy=0;" edge="1" parent="1" source="iUOMdO7g5Awjb3ztJrqv-6" target="T4S2hVJWDYB4ushYNIzX-8">
          <mxGeometry relative="1" as="geometry" />
        </mxCell>
        <mxCell id="iUOMdO7g5Awjb3ztJrqv-6" value="data" style="rounded=1;whiteSpace=wrap;html=1;fontSize=22;fontStyle=1" parent="1" vertex="1">
          <mxGeometry x="200" y="455" width="120" height="60" as="geometry" />
        </mxCell>
        <mxCell id="T4S2hVJWDYB4ushYNIzX-40" style="edgeStyle=orthogonalEdgeStyle;rounded=0;orthogonalLoop=1;jettySize=auto;html=1;exitX=0.25;exitY=1;exitDx=0;exitDy=0;entryX=0.5;entryY=0;entryDx=0;entryDy=0;" edge="1" parent="1" source="iUOMdO7g5Awjb3ztJrqv-7" target="T4S2hVJWDYB4ushYNIzX-24">
          <mxGeometry relative="1" as="geometry" />
        </mxCell>
        <mxCell id="T4S2hVJWDYB4ushYNIzX-42" style="edgeStyle=orthogonalEdgeStyle;rounded=0;orthogonalLoop=1;jettySize=auto;html=1;exitX=0.5;exitY=1;exitDx=0;exitDy=0;entryX=0.5;entryY=0;entryDx=0;entryDy=0;" edge="1" parent="1" source="iUOMdO7g5Awjb3ztJrqv-7" target="T4S2hVJWDYB4ushYNIzX-25">
          <mxGeometry relative="1" as="geometry" />
        </mxCell>
        <mxCell id="T4S2hVJWDYB4ushYNIzX-43" style="edgeStyle=orthogonalEdgeStyle;rounded=0;orthogonalLoop=1;jettySize=auto;html=1;exitX=0.75;exitY=1;exitDx=0;exitDy=0;" edge="1" parent="1" source="iUOMdO7g5Awjb3ztJrqv-7" target="T4S2hVJWDYB4ushYNIzX-34">
          <mxGeometry relative="1" as="geometry" />
        </mxCell>
        <mxCell id="iUOMdO7g5Awjb3ztJrqv-7" value="views" style="rounded=1;whiteSpace=wrap;html=1;fontSize=20;fontStyle=1" parent="1" vertex="1">
          <mxGeometry x="200" y="703" width="120" height="60" as="geometry" />
        </mxCell>
        <mxCell id="T4S2hVJWDYB4ushYNIzX-32" style="edgeStyle=orthogonalEdgeStyle;rounded=0;orthogonalLoop=1;jettySize=auto;html=1;" edge="1" parent="1" source="iUOMdO7g5Awjb3ztJrqv-8" target="T4S2hVJWDYB4ushYNIzX-29">
          <mxGeometry relative="1" as="geometry" />
        </mxCell>
        <mxCell id="T4S2hVJWDYB4ushYNIzX-33" style="edgeStyle=orthogonalEdgeStyle;rounded=0;orthogonalLoop=1;jettySize=auto;html=1;entryX=0;entryY=0.5;entryDx=0;entryDy=0;" edge="1" parent="1" source="iUOMdO7g5Awjb3ztJrqv-8" target="T4S2hVJWDYB4ushYNIzX-27">
          <mxGeometry relative="1" as="geometry" />
        </mxCell>
        <mxCell id="T4S2hVJWDYB4ushYNIzX-36" style="edgeStyle=orthogonalEdgeStyle;rounded=0;orthogonalLoop=1;jettySize=auto;html=1;entryX=0;entryY=0.5;entryDx=0;entryDy=0;" edge="1" parent="1" source="iUOMdO7g5Awjb3ztJrqv-8" target="T4S2hVJWDYB4ushYNIzX-26">
          <mxGeometry relative="1" as="geometry" />
        </mxCell>
        <mxCell id="iUOMdO7g5Awjb3ztJrqv-8" value="&lt;b&gt;&lt;font style=&quot;font-size: 20px;&quot;&gt;server&lt;/font&gt;&lt;/b&gt;" style="rounded=1;whiteSpace=wrap;html=1;" parent="1" vertex="1">
          <mxGeometry x="200" y="579" width="120" height="60" as="geometry" />
        </mxCell>
        <mxCell id="iUOMdO7g5Awjb3ztJrqv-12" value="" style="group" parent="1" vertex="1" connectable="0">
          <mxGeometry x="420" y="703" width="140" height="90" as="geometry" />
        </mxCell>
        <mxCell id="iUOMdO7g5Awjb3ztJrqv-11" value="&lt;b&gt;&lt;font style=&quot;font-size: 16px;&quot;&gt;server.js&lt;/font&gt;&lt;/b&gt;" style="text;html=1;strokeColor=default;fillColor=none;align=center;verticalAlign=middle;whiteSpace=wrap;rounded=0;" parent="iUOMdO7g5Awjb3ztJrqv-12" vertex="1">
          <mxGeometry x="-2.1052631578947367" y="57.85714285714286" width="80" height="25.714285714285715" as="geometry" />
        </mxCell>
        <mxCell id="iUOMdO7g5Awjb3ztJrqv-18" value="" style="group" parent="1" vertex="1" connectable="0">
          <mxGeometry x="450" y="120" width="110" height="110" as="geometry" />
        </mxCell>
        <mxCell id="iUOMdO7g5Awjb3ztJrqv-16" value="" style="dashed=0;outlineConnect=0;html=1;align=center;labelPosition=center;verticalLabelPosition=bottom;verticalAlign=top;shape=mxgraph.weblogos.json" parent="iUOMdO7g5Awjb3ztJrqv-18" vertex="1">
          <mxGeometry x="20.63" y="-10" width="59.38" height="69.56" as="geometry" />
        </mxCell>
        <mxCell id="iUOMdO7g5Awjb3ztJrqv-17" value="&lt;b&gt;&lt;font style=&quot;font-size: 18px;&quot;&gt;package.json&lt;/font&gt;&lt;/b&gt;" style="text;html=1;strokeColor=default;fillColor=none;align=center;verticalAlign=middle;whiteSpace=wrap;rounded=0;" parent="iUOMdO7g5Awjb3ztJrqv-18" vertex="1">
          <mxGeometry y="62.857142857142854" width="110" height="47.14285714285714" as="geometry" />
        </mxCell>
        <mxCell id="iUOMdO7g5Awjb3ztJrqv-20" value="" style="group" parent="1" vertex="1" connectable="0">
          <mxGeometry x="440" y="260" width="150" height="120" as="geometry" />
        </mxCell>
        <mxCell id="iUOMdO7g5Awjb3ztJrqv-21" value="" style="dashed=0;outlineConnect=0;html=1;align=center;labelPosition=center;verticalLabelPosition=bottom;verticalAlign=top;shape=mxgraph.weblogos.json" parent="iUOMdO7g5Awjb3ztJrqv-20" vertex="1">
          <mxGeometry x="33.333333333333336" width="58.333333333333336" height="60.64" as="geometry" />
        </mxCell>
        <mxCell id="iUOMdO7g5Awjb3ztJrqv-22" value="&lt;b&gt;&lt;font style=&quot;font-size: 18px;&quot;&gt;package-lock.json&lt;/font&gt;&lt;/b&gt;" style="text;html=1;strokeColor=default;fillColor=none;align=center;verticalAlign=middle;whiteSpace=wrap;rounded=0;" parent="iUOMdO7g5Awjb3ztJrqv-20" vertex="1">
          <mxGeometry x="-8.333333333333334" y="64" width="150" height="56" as="geometry" />
        </mxCell>
        <mxCell id="iUOMdO7g5Awjb3ztJrqv-34" value="" style="group" parent="1" vertex="1" connectable="0">
          <mxGeometry x="380" y="550" width="150" height="150" as="geometry" />
        </mxCell>
        <mxCell id="iUOMdO7g5Awjb3ztJrqv-33" value="&lt;b&gt;&lt;font style=&quot;font-size: 16px;&quot;&gt;database.js&lt;/font&gt;&lt;/b&gt;" style="text;html=1;strokeColor=default;fillColor=none;align=center;verticalAlign=middle;whiteSpace=wrap;rounded=0;" parent="iUOMdO7g5Awjb3ztJrqv-34" vertex="1">
          <mxGeometry x="25" y="89" width="125" height="31" as="geometry" />
        </mxCell>
        <mxCell id="T4S2hVJWDYB4ushYNIzX-29" value="" style="shape=image;html=1;verticalAlign=top;verticalLabelPosition=bottom;labelBackgroundColor=#ffffff;imageAspect=0;aspect=fixed;image=https://cdn0.iconfinder.com/data/icons/file-names-26/512/27-128.png" vertex="1" parent="iUOMdO7g5Awjb3ztJrqv-34">
          <mxGeometry x="51.66999999999996" y="32" width="54" height="54" as="geometry" />
        </mxCell>
        <mxCell id="T4S2hVJWDYB4ushYNIzX-2" style="edgeStyle=orthogonalEdgeStyle;rounded=0;orthogonalLoop=1;jettySize=auto;html=1;entryX=0;entryY=0.5;entryDx=0;entryDy=0;" edge="1" parent="1" target="iUOMdO7g5Awjb3ztJrqv-5">
          <mxGeometry relative="1" as="geometry">
            <mxPoint x="103.5" y="597.0000000000002" as="sourcePoint" />
          </mxGeometry>
        </mxCell>
        <mxCell id="T4S2hVJWDYB4ushYNIzX-3" style="edgeStyle=orthogonalEdgeStyle;rounded=0;orthogonalLoop=1;jettySize=auto;html=1;exitX=1;exitY=0.5;exitDx=0;exitDy=0;exitPerimeter=0;entryX=0;entryY=0.5;entryDx=0;entryDy=0;" edge="1" parent="1" target="iUOMdO7g5Awjb3ztJrqv-6">
          <mxGeometry relative="1" as="geometry">
            <mxPoint x="103.5" y="597.0000000000002" as="sourcePoint" />
          </mxGeometry>
        </mxCell>
        <mxCell id="T4S2hVJWDYB4ushYNIzX-4" style="edgeStyle=orthogonalEdgeStyle;rounded=0;orthogonalLoop=1;jettySize=auto;html=1;entryX=0;entryY=0.5;entryDx=0;entryDy=0;" edge="1" parent="1" target="iUOMdO7g5Awjb3ztJrqv-8">
          <mxGeometry relative="1" as="geometry">
            <mxPoint x="103.5" y="597.0000000000002" as="sourcePoint" />
          </mxGeometry>
        </mxCell>
        <mxCell id="T4S2hVJWDYB4ushYNIzX-5" style="edgeStyle=orthogonalEdgeStyle;rounded=0;orthogonalLoop=1;jettySize=auto;html=1;entryX=0;entryY=0.5;entryDx=0;entryDy=0;" edge="1" parent="1" target="iUOMdO7g5Awjb3ztJrqv-7">
          <mxGeometry relative="1" as="geometry">
            <mxPoint x="103.5" y="597.0000000000002" as="sourcePoint" />
          </mxGeometry>
        </mxCell>
        <mxCell id="T4S2hVJWDYB4ushYNIzX-11" value="" style="group" vertex="1" connectable="0" parent="1">
          <mxGeometry x="352.5" y="445" width="315" height="110" as="geometry" />
        </mxCell>
        <mxCell id="T4S2hVJWDYB4ushYNIzX-8" value="" style="image;html=1;image=img/lib/clip_art/computers/Database_128x128.png" vertex="1" parent="T4S2hVJWDYB4ushYNIzX-11">
          <mxGeometry x="117.5" width="80" height="80" as="geometry" />
        </mxCell>
        <mxCell id="T4S2hVJWDYB4ushYNIzX-9" value="MongoDB Server in AWS Cloud" style="text;html=1;strokeColor=default;fillColor=none;align=center;verticalAlign=middle;whiteSpace=wrap;rounded=0;fontStyle=1;fontSize=19;" vertex="1" parent="T4S2hVJWDYB4ushYNIzX-11">
          <mxGeometry y="80" width="315" height="30" as="geometry" />
        </mxCell>
        <mxCell id="T4S2hVJWDYB4ushYNIzX-25" value="" style="shape=image;html=1;verticalAlign=top;verticalLabelPosition=bottom;labelBackgroundColor=#ffffff;imageAspect=0;aspect=fixed;image=https://cdn0.iconfinder.com/data/icons/file-names-26/512/27-128.png" vertex="1" parent="1">
          <mxGeometry x="142" y="866" width="54" height="54" as="geometry" />
        </mxCell>
        <mxCell id="T4S2hVJWDYB4ushYNIzX-26" value="" style="shape=image;html=1;verticalAlign=top;verticalLabelPosition=bottom;labelBackgroundColor=#ffffff;imageAspect=0;aspect=fixed;image=https://cdn0.iconfinder.com/data/icons/file-names-26/512/27-128.png" vertex="1" parent="1">
          <mxGeometry x="428" y="823" width="54" height="54" as="geometry" />
        </mxCell>
        <mxCell id="T4S2hVJWDYB4ushYNIzX-27" value="" style="shape=image;html=1;verticalAlign=top;verticalLabelPosition=bottom;labelBackgroundColor=#ffffff;imageAspect=0;aspect=fixed;image=https://cdn0.iconfinder.com/data/icons/file-names-26/512/27-128.png" vertex="1" parent="1">
          <mxGeometry x="428" y="706" width="54" height="54" as="geometry" />
        </mxCell>
        <mxCell id="T4S2hVJWDYB4ushYNIzX-34" value="" style="shape=image;html=1;verticalAlign=top;verticalLabelPosition=bottom;labelBackgroundColor=#ffffff;imageAspect=0;aspect=fixed;image=https://cdn0.iconfinder.com/data/icons/file-names-26/512/27-128.png" vertex="1" parent="1">
          <mxGeometry x="298.5" y="866" width="54" height="54" as="geometry" />
        </mxCell>
        <mxCell id="T4S2hVJWDYB4ushYNIzX-35" value="&lt;b&gt;&lt;font style=&quot;font-size: 16px;&quot;&gt;passportConfig.js&lt;br&gt;&lt;/font&gt;&lt;/b&gt;" style="text;html=1;strokeColor=default;fillColor=none;align=center;verticalAlign=middle;whiteSpace=wrap;rounded=0;" vertex="1" parent="1">
          <mxGeometry x="388" y="877" width="146" height="25.71" as="geometry" />
        </mxCell>
        <mxCell id="T4S2hVJWDYB4ushYNIzX-41" value="" style="group" vertex="1" connectable="0" parent="1">
          <mxGeometry x="-29" y="866" width="80" height="82.71000000000004" as="geometry" />
        </mxCell>
        <mxCell id="T4S2hVJWDYB4ushYNIzX-24" value="" style="shape=image;html=1;verticalAlign=top;verticalLabelPosition=bottom;labelBackgroundColor=#ffffff;imageAspect=0;aspect=fixed;image=https://cdn0.iconfinder.com/data/icons/file-names-26/512/27-128.png" vertex="1" parent="T4S2hVJWDYB4ushYNIzX-41">
          <mxGeometry x="13" width="54" height="54" as="geometry" />
        </mxCell>
        <mxCell id="T4S2hVJWDYB4ushYNIzX-37" value="&lt;b&gt;&lt;font style=&quot;font-size: 16px;&quot;&gt;index.ejs&lt;/font&gt;&lt;/b&gt;" style="text;html=1;strokeColor=default;fillColor=none;align=center;verticalAlign=middle;whiteSpace=wrap;rounded=0;" vertex="1" parent="T4S2hVJWDYB4ushYNIzX-41">
          <mxGeometry y="54" width="80" height="28.71" as="geometry" />
        </mxCell>
        <mxCell id="T4S2hVJWDYB4ushYNIzX-47" value="&lt;b&gt;&lt;font style=&quot;font-size: 16px;&quot;&gt;login.ejs&lt;/font&gt;&lt;/b&gt;" style="text;html=1;strokeColor=default;fillColor=none;align=center;verticalAlign=middle;whiteSpace=wrap;rounded=0;" vertex="1" parent="1">
          <mxGeometry x="125" y="920" width="84" height="28" as="geometry" />
        </mxCell>
        <mxCell id="T4S2hVJWDYB4ushYNIzX-48" value="&lt;b&gt;&lt;font style=&quot;font-size: 16px;&quot;&gt;register.ejs&lt;/font&gt;&lt;/b&gt;" style="text;html=1;strokeColor=default;fillColor=none;align=center;verticalAlign=middle;whiteSpace=wrap;rounded=0;" vertex="1" parent="1">
          <mxGeometry x="281.5" y="917.85" width="88" height="30.15" as="geometry" />
        </mxCell>
      </root>
    </mxGraphModel>
  </diagram>
</mxfile>
